<?xml version="1.0" encoding="utf-8"?>
<!-- Svg Vector Icons : http://www.onlinewebfonts.com/icon -->
<!DOCTYPE svg PUBLIC "-//W3C//DTD SVG 1.1//EN" "http://www.w3.org/Graphics/SVG/1.1/DTD/svg11.dtd">
<svg version="1.1" xmlns="http://www.w3.org/2000/svg" xmlns:xlink="http://www.w3.org/1999/xlink" x="0px" y="0px" viewBox="0 0 1000 1000" enable-background="new 0 0 1000 1000" xml:space="preserve">
<metadata> Svg Vector Icons : http://www.onlinewebfonts.com/icon </metadata>
<g><path d="M500,10c-219.9,0-398.1,178.2-398.1,398.1c0,51.3,9.7,100.3,27.4,145.3c0,0,0,0,0,0c6,15.2,12.8,29.9,20.5,44.1C192.9,683.4,305.6,874.3,500,990c194.4-115.7,307-306.6,350.2-392.4c30.6-56.4,47.9-120.9,47.9-189.5C898.1,188.2,719.9,10,500,10z M500,750.8c-186.8,0-338.2-151.4-338.2-338.2S313.2,74.3,500,74.3c186.8,0,338.2,151.4,338.2,338.2C838.2,599.3,686.8,750.8,500,750.8z"/><path d="M452.1,487.9c11.4,2.3,26.2,3,42.5,3c73.5,0,136.5-17.4,178.9-53.8c33.5-28,50.7-70.5,50.7-121.3c0-50-22.9-92.5-58.8-117.5c-36.8-28.1-91.5-41.7-168.3-41.7c-76,0-129.9,4.5-168.3,10.6v504.1h123.4V487.9L452.1,487.9z M452.1,248.4c9-2.3,26.2-3.8,50.7-3.8c62.9,0,98.1,28.1,98.1,75c0,51.5-40.9,82.6-107,82.6c-18.8,0-31-0.8-41.7-3L452.1,248.4L452.1,248.4z"/></g>
</svg>